<svg version="1" xmlns="http://www.w3.org/2000/svg" width="346.667" height="346.667" viewBox="0 0 260.000000 260.000000"><path d="M0 130v130h260V0H0v130zm145.4-6.4c1.4.6 1.6 7.1 1.6 63.4 0 69.5.6 64-6.5 64-5.9 0-6.5-.6-6.5-7.1 0-3.2-.3-5.9-.6-5.9s-2.8 2-5.5 4.4c-8 7.2-12.9 9.1-23.4 9.1-8.1 0-9.5-.3-14.4-3-12.5-6.9-18.1-19.8-18.1-41.4.1-27.9 11.6-44.4 32.1-45.9 8.6-.6 15.4 1.6 22.5 7.4l5.4 4.4v-23.8c0-17.2.3-24.1 1.2-25 1.2-1.2 9.5-1.6 12.2-.6zm43.4.6c.9.9 1.2 8 1.2 25.6v24.4l4-3.5c2.2-1.8 6.3-4.7 9.2-6.3 4.8-2.6 6.2-2.9 14.3-2.9 7.8 0 9.7.4 14.1 2.7 8.7 4.6 14.1 12.3 16.9 24 2 8.4 2 27.6 0 35.3-5 19.1-18 29.5-35.4 28.3-7.8-.6-12.8-2.9-19.9-9.3l-5.2-4.7v6c0 6.6-.6 7.2-6.5 7.2-7.1 0-6.5 5.5-6.5-64 0-49.3.3-62.9 1.3-63.3 2.5-1 11.3-.7 12.5.5z"/><path d="M100.3 176.1c-8.6 4.2-12.5 13.8-12.6 30.4-.1 13 1.8 20.8 6.5 26 4.1 4.7 7.7 6.5 13.3 6.5 6.6 0 10.8-2.1 18.1-9.1l6.4-6.2V189l-5.6-5.6c-9.3-9.2-17.5-11.6-26.1-7.3zM205.5 176.3c-2.7 1.3-7.4 4.9-10.2 8l-5.3 5.6v33.9l5.5 5.5c12 11.9 23 12.9 31.7 2.8 4.9-5.7 7.2-14.1 7.1-26.1-.1-19.7-6.6-30.8-18.5-31.7-4.1-.3-6.4.2-10.3 2z"/></svg>